<svg width="81" height="24" viewBox="0 0 81 24" fill="none" xmlns="http://www.w3.org/2000/svg">
<path d="M10.1488 1.76031H14.0188L23.2588 23.0003H17.9788L16.1487 18.5003H7.89875L6.12875 23.0003H0.96875L10.1488 1.76031ZM11.9488 7.94031L9.36875 14.5403H14.5588L11.9488 7.94031Z" fill="#01996D"/>
<path d="M24.8851 0.320312H29.3851V23.0003H24.8851V0.320312Z" fill="#01996D"/>
<path d="M32.678 8.42031H37.178V23.0003H32.678V8.42031ZM32.318 3.83031C32.318 3.11031 32.568 2.50031 33.068 2.00031C33.588 1.48031 34.208 1.22031 34.928 1.22031C35.648 1.22031 36.258 1.48031 36.758 2.00031C37.278 2.50031 37.538 3.11031 37.538 3.83031C37.538 4.55031 37.278 5.17031 36.758 5.69031C36.258 6.19031 35.648 6.44031 34.928 6.44031C34.208 6.44031 33.588 6.19031 33.068 5.69031C32.568 5.17031 32.318 4.55031 32.318 3.83031Z" fill="#01996D"/>
<path d="M38.881 8.42031H43.741L47.431 18.3203H47.491L50.911 8.42031H55.441L49.681 23.0003H44.911L38.881 8.42031Z" fill="#01996D"/>
<path d="M57.1409 8.42031H61.6409V23.0003H57.1409V8.42031ZM56.7809 3.83031C56.7809 3.11031 57.0309 2.50031 57.5309 2.00031C58.0509 1.48031 58.6709 1.22031 59.3909 1.22031C60.1109 1.22031 60.7209 1.48031 61.2209 2.00031C61.7409 2.50031 62.0009 3.11031 62.0009 3.83031C62.0009 4.55031 61.7409 5.17031 61.2209 5.69031C60.7209 6.19031 60.1109 6.44031 59.3909 6.44031C58.6709 6.44031 58.0509 6.19031 57.5309 5.69031C57.0309 5.17031 56.7809 4.55031 56.7809 3.83031Z" fill="#01996D"/>
<path d="M64.3339 15.7103C64.3339 14.5503 64.5439 13.5003 64.9639 12.5603C65.3839 11.6203 65.9539 10.8203 66.6739 10.1603C67.4139 9.48031 68.2739 8.96031 69.2539 8.60031C70.2539 8.24031 71.3139 8.06031 72.4339 8.06031C73.5539 8.06031 74.6039 8.24031 75.5839 8.60031C76.5839 8.96031 77.4439 9.48031 78.1639 10.1603C78.9039 10.8203 79.4839 11.6203 79.9039 12.5603C80.3239 13.5003 80.5339 14.5503 80.5339 15.7103C80.5339 16.8703 80.3239 17.9203 79.9039 18.8603C79.4839 19.8003 78.9039 20.6103 78.1639 21.2903C77.4439 21.9503 76.5839 22.4603 75.5839 22.8203C74.6039 23.1803 73.5539 23.3603 72.4339 23.3603C71.3139 23.3603 70.2539 23.1803 69.2539 22.8203C68.2739 22.4603 67.4139 21.9503 66.6739 21.2903C65.9539 20.6103 65.3839 19.8003 64.9639 18.8603C64.5439 17.9203 64.3339 16.8703 64.3339 15.7103ZM68.8339 15.7103C68.8339 16.8103 69.1439 17.7003 69.7639 18.3803C70.4039 19.0603 71.2939 19.4003 72.4339 19.4003C73.5739 19.4003 74.4539 19.0603 75.0739 18.3803C75.7139 17.7003 76.0339 16.8103 76.0339 15.7103C76.0339 14.6103 75.7139 13.7203 75.0739 13.0403C74.4539 12.3603 73.5739 12.0203 72.4339 12.0203C71.2939 12.0203 70.4039 12.3603 69.7639 13.0403C69.1439 13.7203 68.8339 14.6103 68.8339 15.7103Z" fill="#01996D"/>
</svg>
